<?xml version="1.0" standalone="no"?>
<!DOCTYPE svg PUBLIC "-//W3C//DTD SVG 20010904//EN"
 "http://www.w3.org/TR/2001/REC-SVG-20010904/DTD/svg10.dtd">
<svg version="1.0" xmlns="http://www.w3.org/2000/svg"
 width="800.000000pt" height="800.000000pt" viewBox="0 0 800.000000 800.000000"
 preserveAspectRatio="xMidYMid meet">
<metadata>
Created by potrace 1.11, written by Peter Selinger 2001-2013
</metadata>
<g transform="translate(0.000000,800.000000) scale(0.100000,-0.100000)"
fill="#000000" stroke="none">
<path d="M3800 7254 c-25 -2 -103 -9 -175 -14 -1033 -86 -2001 -489 -2598
-1083 -728 -726 -850 -1660 -320 -2455 275 -414 689 -756 1240 -1025 l143 -69
0 -83 c0 -323 55 -851 126 -1204 14 -68 21 -127 17 -131 -4 -4 -70 -28 -147
-54 -414 -142 -755 -351 -912 -559 -126 -169 -164 -349 -107 -517 l18 -55
3181 -3 3182 -2 6 32 c44 248 56 870 23 1168 -63 560 -193 943 -359 1056 -61
41 -135 41 -196 0 -134 -91 -253 -380 -321 -781 -23 -137 -51 -390 -51 -465
l0 -50 -57 29 c-177 88 -449 186 -703 251 -91 23 -166 43 -168 44 -1 2 13 95
32 207 42 252 63 430 77 664 6 99 14 211 17 249 l7 68 140 53 c1338 504 2083
1495 1895 2523 -101 553 -479 1078 -1060 1471 -576 390 -1282 629 -2110 717
-136 14 -716 27 -820 18z m-1386 -1138 c390 -191 570 -1077 351 -1733 -82
-247 -205 -418 -353 -490 -48 -24 -70 -28 -137 -28 -68 0 -89 4 -137 28 -147
72 -271 245 -353 490 -229 689 -19 1617 398 1753 64 21 165 12 231 -20z m3471
-28 c197 -100 349 -399 412 -808 13 -83 17 -174 17 -330 0 -156 -4 -247 -17
-330 -63 -408 -214 -704 -412 -808 -42 -22 -63 -27 -130 -27 -67 0 -88 5 -130
27 -198 104 -349 400 -412 808 -24 160 -24 500 0 660 69 448 243 757 467 831
47 16 152 4 205 -23z"/>
<path d="M2411 5557 c-18 -6 -58 -33 -87 -60 -161 -147 -202 -476 -88 -713 53
-113 156 -194 244 -194 88 0 191 81 244 194 114 237 73 566 -87 713 -75 68
-144 86 -226 60z"/>
<path d="M5520 5519 c-40 -16 -100 -80 -130 -140 -49 -97 -64 -169 -64 -319 0
-200 43 -330 137 -417 75 -70 149 -69 224 0 94 87 137 218 137 417 0 98 -5
152 -18 199 -54 197 -173 305 -286 260z"/>
</g>
</svg>
